<svg xmlns="http://www.w3.org/2000/svg" viewBox="0 0 616.47 95.04"><defs><style>.cls-1{fill:#6e00ff;}</style></defs><g id="Camada_2" data-name="Camada 2"><g id="Camada_1-2" data-name="Camada 1"><path d="M0,41H9.53V59.67A22,22,0,0,1,15.19,56,14.74,14.74,0,0,1,21,54.82a13,13,0,0,1,9.6,3.94q3.35,3.41,3.34,10V94.06H24.43V77.29a41.57,41.57,0,0,0-.63-9,6.26,6.26,0,0,0-2.16-3.52,6.1,6.1,0,0,0-3.78-1.16,7.15,7.15,0,0,0-5,1.93A10.3,10.3,0,0,0,10,70.82a43.81,43.81,0,0,0-.42,7.87V94.06H0Z"/><path d="M43.14,55.81h9.7V74.23a25.63,25.63,0,0,0,.74,7.47A6.52,6.52,0,0,0,56,85a6.82,6.82,0,0,0,4,1.16A7,7,0,0,0,64.06,85a6.67,6.67,0,0,0,2.49-3.36q.6-1.65.6-7.07V55.81h9.6V72q0,10-1.59,13.71a14.81,14.81,0,0,1-5.69,6.91A17.41,17.41,0,0,1,59.91,95q-6.3,0-10.18-2.81a14.92,14.92,0,0,1-5.47-7.84q-1.12-3.48-1.12-12.66Z"/><path d="M114.61,55.81h9.6V94.06h-9.6V90A18.66,18.66,0,0,1,109,93.86,15.63,15.63,0,0,1,102.85,95,17,17,0,0,1,90,89.29,20,20,0,0,1,84.62,75q0-8.85,5.23-14.52a16.69,16.69,0,0,1,12.71-5.66,16.33,16.33,0,0,1,6.47,1.3,17.77,17.77,0,0,1,5.58,3.9Zm-10.09,7.87a9.68,9.68,0,0,0-7.39,3.15,11.3,11.3,0,0,0-2.95,8.07,11.44,11.44,0,0,0,3,8.15,9.71,9.71,0,0,0,7.37,3.2,9.87,9.87,0,0,0,7.5-3.15,11.46,11.46,0,0,0,3-8.24,11.17,11.17,0,0,0-3-8.09A10,10,0,0,0,104.52,63.68Z"/><path d="M133.91,55.81h9.6v3.92a23,23,0,0,1,5.91-3.83,14.29,14.29,0,0,1,5.43-1.08,13.15,13.15,0,0,1,9.65,4q3.33,3.38,3.34,10V94.06h-9.5V77.31q0-6.86-.61-9.1a6.19,6.19,0,0,0-2.14-3.42,6,6,0,0,0-3.77-1.18,7.07,7.07,0,0,0-5,2A10.44,10.44,0,0,0,143.93,71a43.52,43.52,0,0,0-.42,7.76V94.06h-9.6Z"/><path d="M214.56,63.54l-8,4.39a13.71,13.71,0,0,0-4.45-3.26,13.39,13.39,0,0,0-5.16-.92A12,12,0,0,0,188.25,67a10.94,10.94,0,0,0-3.33,8.23,10.59,10.59,0,0,0,3.2,8,11.62,11.62,0,0,0,8.42,3.09q6.44,0,10-4.39L214.14,87q-6.15,8-17.37,8-10.1,0-15.8-6a19.88,19.88,0,0,1,4.81-31.57,23.18,23.18,0,0,1,11.13-2.67,22.56,22.56,0,0,1,10.23,2.27A19.41,19.41,0,0,1,214.56,63.54Z"/><path d="M251.44,55.81H261V94.06h-9.6V90a18.78,18.78,0,0,1-5.64,3.85A15.68,15.68,0,0,1,239.67,95a17,17,0,0,1-12.81-5.75A20,20,0,0,1,221.45,75q0-8.85,5.23-14.52a16.69,16.69,0,0,1,12.71-5.66,16.24,16.24,0,0,1,6.46,1.3,17.7,17.7,0,0,1,5.59,3.9Zm-10.09,7.87A9.68,9.68,0,0,0,234,66.83a11.3,11.3,0,0,0-3,8.07,11.44,11.44,0,0,0,3,8.15,9.69,9.69,0,0,0,7.37,3.2,9.87,9.87,0,0,0,7.5-3.15,11.46,11.46,0,0,0,3-8.24,11.17,11.17,0,0,0-3-8.09A10,10,0,0,0,241.35,63.68Z"/><path class="cls-1" d="M276,84a5.34,5.34,0,0,1,3.9,1.6,5.48,5.48,0,0,1,0,7.78A5.51,5.51,0,1,1,276,84Z"/><path class="cls-1" d="M328.32,63.54l-8,4.39a13.61,13.61,0,0,0-4.45-3.26,13.31,13.31,0,0,0-5.15-.92A12,12,0,0,0,302,67a11,11,0,0,0-3.32,8.23,10.55,10.55,0,0,0,3.2,8,11.61,11.61,0,0,0,8.41,3.09q6.45,0,10-4.39L327.9,87q-6.15,8-17.36,8-10.1,0-15.81-6a19.89,19.89,0,0,1,4.82-31.57,23.15,23.15,0,0,1,11.13-2.67,22.62,22.62,0,0,1,10.23,2.27A19.38,19.38,0,0,1,328.32,63.54Z"/><path class="cls-1" d="M337,41h9.53V59.67A22,22,0,0,1,352.2,56,14.7,14.7,0,0,1,358,54.82a13,13,0,0,1,9.6,3.94q3.35,3.41,3.34,10V94.06h-9.46V77.29a41.57,41.57,0,0,0-.63-9,6.26,6.26,0,0,0-2.16-3.52,6.1,6.1,0,0,0-3.78-1.16,7.15,7.15,0,0,0-5,1.93,10.23,10.23,0,0,0-2.9,5.28,43.81,43.81,0,0,0-.42,7.87V94.06H337Z"/><path class="cls-1" d="M408.41,55.81H418V94.06h-9.6V90a18.66,18.66,0,0,1-5.64,3.85A15.63,15.63,0,0,1,396.65,95a17,17,0,0,1-12.82-5.75A20,20,0,0,1,378.42,75q0-8.85,5.23-14.52a16.7,16.7,0,0,1,12.72-5.66,16.31,16.31,0,0,1,6.46,1.3,17.77,17.77,0,0,1,5.58,3.9Zm-10.09,7.87a9.68,9.68,0,0,0-7.39,3.15A11.35,11.35,0,0,0,388,74.9a11.44,11.44,0,0,0,3,8.15,9.73,9.73,0,0,0,7.38,3.2,9.86,9.86,0,0,0,7.49-3.15,11.46,11.46,0,0,0,3-8.24,11.17,11.17,0,0,0-3-8.09A10,10,0,0,0,398.32,63.68Z"/><path class="cls-1" d="M428.87,41.71h9.6v14.1h5.69v8.26h-5.69v30h-9.6v-30H424V55.81h4.92Z"/><path class="cls-1" d="M558.38,54.56v3.52c-13.9-4.42-32.27-9.58-51.87-14.56-18.25-4.63-35.21-8.48-49-11.21V29c15.05,3.18,31.95,7.11,49.76,11.63C525.6,45.25,543.31,50.05,558.38,54.56Z"/><circle class="cls-1" cx="504.99" cy="47.5" r="47.5"/><path d="M552.49,47.49A47.5,47.5,0,0,1,463.72,71,47.25,47.25,0,0,0,496,83.73c26.36,0,47.73-21.61,47.73-48.27a48.49,48.49,0,0,0-4.87-21.26A47.33,47.33,0,0,1,552.49,47.49Z"/><path class="cls-1" d="M558.38,54.56v3.52c18.37,5.84,29.85,10.54,29.37,12.43-.84,3.32-38.58-3.41-84.29-15s-82.08-23.72-81.23-27c.5-2,14.61-.22,35.26,3.87V29c-36.83-7.79-63.06-11.31-63.95-7.8-1.26,5,47.62,21.66,109.17,37.3S615.18,82.76,616.44,77.8C617.32,74.33,593.7,65.13,558.38,54.56Z"/></g></g></svg>